<?xml version="1.0" standalone="no"?>
<!DOCTYPE svg PUBLIC "-//W3C//DTD SVG 1.1//EN" "http://www.w3.org/Graphics/SVG/1.1/DTD/svg11.dtd">
<svg version="1.1" xmlns="http://www.w3.org/2000/svg" viewBox="0 0 902.9938151951942 486.8945127006924" width="902.9938151951942" height="486.8945127006924"><!-- svg-source:excalidraw --><metadata></metadata><defs><style class="style-fonts">
      </style></defs><rect x="0" y="0" width="902.9938151951942" height="486.8945127006924" fill="#ffffff"></rect><g stroke-linecap="round" transform="translate(10 10) rotate(0 62.56115676102186 40.30893702282462)"><path d="M20.15 0 C53.42 1.03, 83.53 1.8, 104.97 0 M20.15 0 C43.41 0.15, 67.06 0.48, 104.97 0 M104.97 0 C118.73 -1.88, 127.08 8.06, 125.12 20.15 M104.97 0 C116.74 1.89, 125.18 7.21, 125.12 20.15 M125.12 20.15 C123.77 34.14, 126.54 47.27, 125.12 60.46 M125.12 20.15 C125.46 31.22, 126.13 40.93, 125.12 60.46 M125.12 60.46 C125.45 72.37, 118.58 79.21, 104.97 80.62 M125.12 60.46 C127.15 74.07, 119.01 80.04, 104.97 80.62 M104.97 80.62 C83.15 78.32, 56.77 79.22, 20.15 80.62 M104.97 80.62 C77.77 81.83, 53.29 82.17, 20.15 80.62 M20.15 80.62 C6.15 80.19, -0.88 74.58, 0 60.46 M20.15 80.62 C8.05 79.71, -0.55 75.64, 0 60.46 M0 60.46 C0.17 52.11, -0.07 40.82, 0 20.15 M0 60.46 C0.35 47.27, 0.36 35.29, 0 20.15 M0 20.15 C1.96 5.06, 5.12 1.72, 20.15 0 M0 20.15 C-1.55 5.77, 6.96 -2.27, 20.15 0" stroke="#1e1e1e" stroke-width="2" fill="none"></path></g><g stroke-linecap="round" transform="translate(20.094295726021755 18.828820677388165) rotate(0 52.46686032891833 31.480116197350995)"><path d="M15.74 0 C42.26 -2.08, 71.32 0.37, 89.19 0 M15.74 0 C40.78 0.1, 65.03 0.51, 89.19 0 M89.19 0 C99.66 -1.05, 104.85 5.06, 104.93 15.74 M89.19 0 C97.41 0.03, 104.18 6.36, 104.93 15.74 M104.93 15.74 C105.13 28.38, 103.32 39.14, 104.93 47.22 M104.93 15.74 C105.42 22.7, 105.32 30.3, 104.93 47.22 M104.93 47.22 C105.59 56.94, 101.1 64.64, 89.19 62.96 M104.93 47.22 C107.1 55.5, 98.65 64.45, 89.19 62.96 M89.19 62.96 C71.55 63.96, 51.12 61.65, 15.74 62.96 M89.19 62.96 C63.46 62.73, 38.37 62.61, 15.74 62.96 M15.74 62.96 C6.27 62.43, -0.93 58.8, 0 47.22 M15.74 62.96 C6.44 61.89, -1.2 56.37, 0 47.22 M0 47.22 C1.6 38.75, 2.16 32.15, 0 15.74 M0 47.22 C-0.43 34.39, -0.59 21.93, 0 15.74 M0 15.74 C-0.55 6.57, 6.72 0.96, 15.74 0 M0 15.74 C-0.79 3.19, 4.01 0.06, 15.74 0" stroke="#1e1e1e" stroke-width="2" fill="none"></path></g><g stroke-linecap="round" transform="translate(12.568088753260895 89.42141217779204) rotate(0 60.228135202326854 7.660101545568125)"><path d="M3.83 0 C44.05 0.85, 82.77 -1.32, 116.63 0 M3.83 0 C31.37 0.5, 57.68 0.01, 116.63 0 M116.63 0 C119.75 0.91, 121.03 -0.54, 120.46 3.83 M116.63 0 C121.17 2.11, 119.66 -0.43, 120.46 3.83 M120.46 3.83 C119.89 6.35, 120.09 8.95, 120.46 11.49 M120.46 3.83 C120.83 6.27, 120.57 9.27, 120.46 11.49 M120.46 11.49 C119.05 15.4, 118.54 14.25, 116.63 15.32 M120.46 11.49 C118.44 14.7, 120.9 16.97, 116.63 15.32 M116.63 15.32 C77.08 13.14, 32.54 15.52, 3.83 15.32 M116.63 15.32 C92.67 14.92, 67.68 14.95, 3.83 15.32 M3.83 15.32 C-0.55 14.11, -1.35 13.33, 0 11.49 M3.83 15.32 C3.43 15.72, 0.06 12.53, 0 11.49 M0 11.49 C0.42 9.14, 0.15 6.48, 0 3.83 M0 11.49 C0.05 8.88, -0.1 5.74, 0 3.83 M0 3.83 C-0.18 0.5, 1.45 -0.5, 3.83 0 M0 3.83 C0.63 -0.2, -0.86 0.11, 3.83 0" stroke="#1e1e1e" stroke-width="2" fill="none"></path></g><g stroke-linecap="round" transform="translate(63.67077778749268 333.3427564655658) rotate(0 41.43641377401036 71.77587811756331)"><path d="M20.72 0 C35.68 -1.65, 48.7 0.12, 62.15 0 M20.72 0 C33.72 1.22, 45.95 1.33, 62.15 0 M62.15 0 C74.18 -0.56, 83.27 7, 82.87 20.72 M62.15 0 C77.66 0.6, 81.38 7.93, 82.87 20.72 M82.87 20.72 C82.01 45.85, 82.18 74.06, 82.87 122.83 M82.87 20.72 C83.83 46.52, 83.57 72.47, 82.87 122.83 M82.87 122.83 C82.18 136.84, 74.75 143.21, 62.15 143.55 M82.87 122.83 C81.49 134.83, 74.29 141.45, 62.15 143.55 M62.15 143.55 C47.81 141.56, 36.91 143.63, 20.72 143.55 M62.15 143.55 C50.06 143.11, 36.97 144.2, 20.72 143.55 M20.72 143.55 C5.9 143.46, -1.05 136.72, 0 122.83 M20.72 143.55 C8.87 144.57, -0.62 135.02, 0 122.83 M0 122.83 C-0.47 91.83, 0.2 58.41, 0 20.72 M0 122.83 C0.22 99.78, -0.69 75.3, 0 20.72 M0 20.72 C-0.78 8.57, 5.93 -0.31, 20.72 0 M0 20.72 C1.82 7.56, 5.8 0.07, 20.72 0" stroke="#1e1e1e" stroke-width="2" fill="none"></path></g><g stroke-linecap="round" transform="translate(71.56609361122742 342.7763143206734) rotate(0 33.79475013717325 55.66449436394092)"><path d="M16.9 0 C24.74 1.22, 33.37 0.83, 50.69 0 M16.9 0 C26.37 -0.65, 37.41 0.07, 50.69 0 M50.69 0 C61.6 0.92, 67.02 4.38, 67.59 16.9 M50.69 0 C61.06 -1.98, 67.71 6.48, 67.59 16.9 M67.59 16.9 C67.79 48.54, 66.44 78.05, 67.59 94.43 M67.59 16.9 C67.86 45.1, 67.6 72.12, 67.59 94.43 M67.59 94.43 C69.33 107.34, 62.29 110.33, 50.69 111.33 M67.59 94.43 C66.16 103.79, 63.84 113.48, 50.69 111.33 M50.69 111.33 C42.64 112.74, 33.1 110.73, 16.9 111.33 M50.69 111.33 C37.9 111.25, 25.43 111.38, 16.9 111.33 M16.9 111.33 C7.5 109.91, -1.41 106.55, 0 94.43 M16.9 111.33 C4.26 110.24, -0.35 104.95, 0 94.43 M0 94.43 C-1.94 75.96, 1.64 54.67, 0 16.9 M0 94.43 C0.4 72.86, -0.52 53, 0 16.9 M0 16.9 C0.94 6.71, 6.02 0.88, 16.9 0 M0 16.9 C2.12 7.01, 5.64 -0.96, 16.9 0" stroke="#1e1e1e" stroke-width="2" fill="none"></path></g><g stroke-linecap="round" transform="translate(99.88562145579618 459.91088487464253) rotate(0 5.591817645743106 5.388478822261561)"><path d="M4.4 0.59 C5.54 0.27, 6.95 0.46, 7.99 0.88 C9.03 1.29, 10.1 2.05, 10.63 3.09 C11.15 4.12, 11.43 5.9, 11.14 7.11 C10.85 8.31, 9.9 9.65, 8.88 10.34 C7.87 11.02, 6.29 11.5, 5.03 11.23 C3.78 10.96, 2.25 9.57, 1.34 8.72 C0.44 7.86, -0.37 7.14, -0.42 6.11 C-0.48 5.07, 0.15 3.57, 1 2.51 C1.85 1.45, 4.01 0.11, 4.7 -0.25 C5.39 -0.62, 5.07 0.19, 5.11 0.29 M5.48 -0.68 C6.47 -0.84, 8.17 -0.09, 9.13 0.81 C10.09 1.7, 11.08 3.4, 11.23 4.68 C11.37 5.96, 10.62 7.43, 9.99 8.48 C9.36 9.53, 8.63 10.67, 7.45 10.97 C6.26 11.28, 4 10.83, 2.87 10.31 C1.75 9.8, 1.12 8.91, 0.69 7.88 C0.26 6.84, -0.01 5.2, 0.3 4.11 C0.62 3.01, 1.57 1.95, 2.59 1.29 C3.62 0.63, 6 0.43, 6.48 0.16 C6.96 -0.11, 5.49 -0.28, 5.49 -0.32" stroke="#1e1e1e" stroke-width="2" fill="none"></path></g><g stroke-linecap="round" transform="translate(376.9160311115209 158.0999824567375) rotate(0 59.25112445141377 71.57066517893543)"><path d="M29.63 0 C44.36 0.39, 56.55 -0.38, 88.88 0 M29.63 0 C52.38 -0.1, 75.8 -0.12, 88.88 0 M88.88 0 C106.76 0.8, 119.59 10.82, 118.5 29.63 M88.88 0 C109.4 1.82, 118.37 10.51, 118.5 29.63 M118.5 29.63 C117.55 51.5, 116.43 72.74, 118.5 113.52 M118.5 29.63 C117.91 52.71, 118.37 76.42, 118.5 113.52 M118.5 113.52 C116.62 133.95, 107.26 143.89, 88.88 143.14 M118.5 113.52 C120.31 132.27, 106.87 145, 88.88 143.14 M88.88 143.14 C68.27 142.56, 43.68 141.64, 29.63 143.14 M88.88 143.14 C74.4 142.94, 58.59 142.58, 29.63 143.14 M29.63 143.14 C9.56 143.44, 1.73 132.78, 0 113.52 M29.63 143.14 C8.54 144.88, 0.1 132.18, 0 113.52 M0 113.52 C0.81 95.46, -0.45 77.52, 0 29.63 M0 113.52 C0.08 81.96, 0.17 51.67, 0 29.63 M0 29.63 C-0.05 10.12, 11.66 0.06, 29.63 0 M0 29.63 C1.34 8.49, 11.83 -0.97, 29.63 0" stroke="#1e1e1e" stroke-width="2" fill="none"></path></g><g stroke-linecap="round" transform="translate(394.3082132254679 269.0568881648615) rotate(0 42.462097149900615 8.926690878104097)"><path d="M4.46 0 C30.85 0.94, 57.71 -2.04, 80.46 0 M4.46 0 C31.46 0.49, 59.92 0.53, 80.46 0 M80.46 0 C83.28 0.26, 86.22 -0.11, 84.92 4.46 M80.46 0 C81.28 0.66, 86.4 1.09, 84.92 4.46 M84.92 4.46 C85.12 6.89, 85.63 10.54, 84.92 13.39 M84.92 4.46 C85.13 7.45, 84.67 10.33, 84.92 13.39 M84.92 13.39 C85.26 17.89, 83.61 18.69, 80.46 17.85 M84.92 13.39 C83.21 18.31, 84.36 16.62, 80.46 17.85 M80.46 17.85 C60.35 17.54, 40.31 17.4, 4.46 17.85 M80.46 17.85 C53.48 19.53, 25.37 18.4, 4.46 17.85 M4.46 17.85 C3.25 19.03, 0.41 15.83, 0 13.39 M4.46 17.85 C3.21 19.52, -2.26 15.15, 0 13.39 M0 13.39 C-0.77 10.61, -0.34 7.35, 0 4.46 M0 13.39 C0.31 11.02, -0.38 8.12, 0 4.46 M0 4.46 C0.07 -0.49, -0.3 1.3, 4.46 0 M0 4.46 C-1.62 1.58, 0.05 -2.12, 4.46 0" stroke="#1e1e1e" stroke-width="2" fill="none"></path></g><g stroke-linecap="round" transform="translate(394.3082132254679 246.8607919274134) rotate(0 42.462097149900615 8.926690878104097)"><path d="M4.46 0 C19.46 -1.75, 33.38 0.15, 80.46 0 M4.46 0 C23.98 0.99, 44.63 0.69, 80.46 0 M80.46 0 C81.64 0.37, 84.99 -0.49, 84.92 4.46 M80.46 0 C81.38 1.5, 83.3 1.58, 84.92 4.46 M84.92 4.46 C84.93 6.82, 84.32 8.81, 84.92 13.39 M84.92 4.46 C84.97 8.21, 84.63 11.14, 84.92 13.39 M84.92 13.39 C84.96 17.29, 82.7 18.14, 80.46 17.85 M84.92 13.39 C83.63 18.41, 82.7 19.29, 80.46 17.85 M80.46 17.85 C57.43 17.22, 35.91 16.9, 4.46 17.85 M80.46 17.85 C55.95 16.75, 31.21 16.31, 4.46 17.85 M4.46 17.85 C-0.04 16.57, -1.53 14.95, 0 13.39 M4.46 17.85 C1.26 19.85, -1.72 17.51, 0 13.39 M0 13.39 C0.66 10.98, 0 7.85, 0 4.46 M0 13.39 C-0.3 10.8, -0.2 8.75, 0 4.46 M0 4.46 C-1.57 1.04, 0.38 -1.06, 4.46 0 M0 4.46 C1.71 1.97, 0.08 0.9, 4.46 0" stroke="#1e1e1e" stroke-width="2" fill="none"></path></g><g stroke-linecap="round" transform="translate(393.10190364734586 223.21712419621878) rotate(0 42.462097149900615 8.926690878104097)"><path d="M4.46 0 C32.9 -1.7, 62.59 1.16, 80.46 0 M4.46 0 C19.78 1.37, 35.6 1.17, 80.46 0 M80.46 0 C82.08 -1.16, 84.7 0, 84.92 4.46 M80.46 0 C83.98 -2.24, 85.49 0.47, 84.92 4.46 M84.92 4.46 C85.12 8.07, 84.49 10.5, 84.92 13.39 M84.92 4.46 C84.6 7.88, 85.15 10.97, 84.92 13.39 M84.92 13.39 C86.54 17.07, 84.37 16.41, 80.46 17.85 M84.92 13.39 C86.02 16.7, 82.73 19.1, 80.46 17.85 M80.46 17.85 C54.05 17.81, 30.13 18.25, 4.46 17.85 M80.46 17.85 C51.59 17.56, 20.89 17.44, 4.46 17.85 M4.46 17.85 C2.97 19.84, 0.66 17.76, 0 13.39 M4.46 17.85 C-0.44 16.17, 1.32 15.38, 0 13.39 M0 13.39 C-0.15 10.88, -0.01 9, 0 4.46 M0 13.39 C-0.14 11.62, -0.04 8.95, 0 4.46 M0 4.46 C-0.32 -0.25, 2.09 1.89, 4.46 0 M0 4.46 C-0.63 3.74, 0.18 -0.33, 4.46 0" stroke="#1e1e1e" stroke-width="2" fill="none"></path></g><g stroke-linecap="round" transform="translate(395.8788112129611 172.5521215182231) rotate(0 3.8601906499909546 4.222083523427614)"><path d="M3.7 0.3 C4.48 0.36, 5.59 0.75, 6.27 1.28 C6.95 1.8, 7.65 2.61, 7.79 3.45 C7.92 4.29, 7.51 5.49, 7.05 6.31 C6.59 7.13, 5.78 8.1, 5.02 8.36 C4.27 8.61, 3.31 8.23, 2.51 7.83 C1.71 7.43, 0.64 6.75, 0.23 5.96 C-0.18 5.17, -0.19 3.9, 0.07 3.09 C0.33 2.28, 1.1 1.57, 1.8 1.1 C2.5 0.63, 3.86 0.48, 4.25 0.27 C4.65 0.06, 4.24 -0.2, 4.17 -0.13 M3.64 -0.48 C4.35 -0.47, 5.79 0.28, 6.43 0.98 C7.07 1.69, 7.35 2.81, 7.47 3.74 C7.59 4.67, 7.46 5.76, 7.14 6.57 C6.83 7.38, 6.31 8.25, 5.57 8.6 C4.84 8.94, 3.62 9.01, 2.75 8.64 C1.88 8.27, 0.75 7.31, 0.35 6.38 C-0.04 5.45, 0.27 3.98, 0.38 3.06 C0.49 2.15, 0.46 1.38, 1.02 0.89 C1.58 0.39, 3.34 0.2, 3.75 0.09 C4.16 -0.02, 3.46 0.19, 3.47 0.22" stroke="#1e1e1e" stroke-width="2" fill="none"></path></g><g stroke-linecap="round" transform="translate(408.4244308254318 172.67275247603533) rotate(0 3.8601906499909546 4.222083523427614)"><path d="M4.27 0.33 C4.99 0.29, 5.81 0.69, 6.42 1.22 C7.03 1.75, 7.84 2.61, 7.9 3.49 C7.97 4.38, 7.32 5.7, 6.81 6.51 C6.3 7.31, 5.65 8.05, 4.85 8.33 C4.05 8.61, 2.78 8.57, 2.03 8.19 C1.28 7.8, 0.68 6.89, 0.37 6.02 C0.05 5.14, -0.07 3.83, 0.14 2.92 C0.35 2.01, 1 1.09, 1.65 0.56 C2.29 0.03, 3.56 -0.17, 4.03 -0.29 C4.49 -0.41, 4.44 -0.33, 4.44 -0.17 M3.09 -0.12 C3.85 -0.22, 4.93 0.03, 5.65 0.53 C6.36 1.03, 7 2.04, 7.36 2.9 C7.72 3.76, 8.15 4.85, 7.81 5.71 C7.47 6.57, 6.17 7.63, 5.33 8.07 C4.5 8.51, 3.53 8.54, 2.79 8.35 C2.05 8.16, 1.29 7.57, 0.88 6.92 C0.47 6.26, 0.29 5.28, 0.34 4.41 C0.4 3.54, 0.7 2.34, 1.21 1.68 C1.71 1.01, 3.07 0.65, 3.38 0.41 C3.69 0.16, 3.01 0.11, 3.08 0.2" stroke="#1e1e1e" stroke-width="2" fill="none"></path></g><g stroke-linecap="round" transform="translate(420.4875266066535 172.4314905604109) rotate(0 3.8601906499909546 4.222083523427614)"><path d="M4.2 0.25 C4.94 0.25, 5.94 0.83, 6.49 1.42 C7.03 2.01, 7.32 2.9, 7.46 3.81 C7.59 4.72, 7.7 6.12, 7.29 6.89 C6.89 7.66, 5.87 8.24, 5.02 8.42 C4.16 8.61, 2.97 8.37, 2.16 7.98 C1.35 7.6, 0.48 6.92, 0.16 6.11 C-0.16 5.3, 0.01 4, 0.24 3.13 C0.47 2.26, 0.86 1.36, 1.54 0.88 C2.21 0.4, 3.77 0.33, 4.27 0.25 C4.77 0.17, 4.58 0.42, 4.53 0.4 M3.69 0.24 C4.37 0.17, 5.36 0.05, 6.09 0.66 C6.81 1.27, 7.92 3.03, 8.05 3.9 C8.18 4.76, 7.29 5.04, 6.88 5.83 C6.47 6.62, 6.39 8.24, 5.59 8.63 C4.79 9.01, 2.86 8.57, 2.1 8.15 C1.34 7.73, 1.31 6.82, 1.01 6.09 C0.71 5.36, 0.29 4.53, 0.3 3.75 C0.32 2.96, 0.51 1.94, 1.12 1.36 C1.72 0.77, 3.51 0.45, 3.91 0.24 C4.31 0.04, 3.58 0.17, 3.51 0.13" stroke="#1e1e1e" stroke-width="2" fill="none"></path></g><g stroke-linecap="round"><g transform="translate(147.05966337808513 77.15964001403742) rotate(0 108.19901798069642 61.31907383806201)"><path d="M-0.82 1.03 C35.02 21.67, 179.38 102.65, 215.76 122.74 M0.95 0.52 C37.13 21.47, 182.09 104.02, 218.13 124.33" stroke="#1e1e1e" stroke-width="2" fill="none"></path></g><g transform="translate(147.05966337808513 77.15964001403742) rotate(0 108.19901798069642 61.31907383806201)"><path d="M193.48 120.18 C203.96 120.76, 211.22 125.06, 218.13 124.33 M193.48 120.18 C198.77 120.2, 203.26 121.2, 218.13 124.33" stroke="#1e1e1e" stroke-width="2" fill="none"></path></g><g transform="translate(147.05966337808513 77.15964001403742) rotate(0 108.19901798069642 61.31907383806201)"><path d="M201.92 105.3 C209.25 111.14, 213.49 120.75, 218.13 124.33 M201.92 105.3 C205.32 108.44, 208.03 112.59, 218.13 124.33" stroke="#1e1e1e" stroke-width="2" fill="none"></path></g></g><mask></mask><g stroke-linecap="round"><g transform="translate(364.6706446616428 164.28168897870557) rotate(0 -108.37749865716762 -66.53609116264093)"><path d="M0.24 -0.81 C-35.86 -22.73, -179.64 -110.27, -215.63 -132.27 M-1.09 1.37 C-37.34 -20.81, -180.19 -111.85, -215.99 -133.97" stroke="#1e1e1e" stroke-width="2" fill="none"></path></g><g transform="translate(364.6706446616428 164.28168897870557) rotate(0 -108.37749865716762 -66.53609116264093)"><path d="M-191.55 -128.71 C-202.18 -128.79, -208.8 -130.87, -215.99 -133.97 M-191.55 -128.71 C-199.2 -131.39, -207.14 -132.46, -215.99 -133.97" stroke="#1e1e1e" stroke-width="2" fill="none"></path></g><g transform="translate(364.6706446616428 164.28168897870557) rotate(0 -108.37749865716762 -66.53609116264093)"><path d="M-200.65 -114.23 C-207.72 -119.84, -210.87 -127.44, -215.99 -133.97 M-200.65 -114.23 C-205.5 -121.48, -210.52 -127.21, -215.99 -133.97" stroke="#1e1e1e" stroke-width="2" fill="none"></path></g></g><mask></mask><g stroke-linecap="round"><g transform="translate(366.190078922983 280.97549558932906) rotate(0 -105.1747691714225 50.74620487213241)"><path d="M1.05 -0.79 C-34.01 16.06, -174.9 84.66, -210.21 101.65 M0.13 1.41 C-35.07 18.43, -175.76 86.45, -211.09 103.27" stroke="#1e1e1e" stroke-width="2" fill="none"></path></g><g transform="translate(366.190078922983 280.97549558932906) rotate(0 -105.1747691714225 50.74620487213241)"><path d="M-193.62 85.39 C-200.26 91.3, -204.08 95.77, -211.09 103.27 M-193.62 85.39 C-198.19 90.82, -202.67 95.07, -211.09 103.27" stroke="#1e1e1e" stroke-width="2" fill="none"></path></g><g transform="translate(366.190078922983 280.97549558932906) rotate(0 -105.1747691714225 50.74620487213241)"><path d="M-186.21 100.81 C-195.21 102.01, -201.32 101.72, -211.09 103.27 M-186.21 100.81 C-192.7 101.99, -199.21 102.04, -211.09 103.27" stroke="#1e1e1e" stroke-width="2" fill="none"></path></g></g><mask></mask><g stroke-linecap="round"><g transform="translate(155.03931901724337 429.58710792196007) rotate(0 109.94517434002802 -58.39089014949147)"><path d="M-0.08 0.59 C36.56 -18.75, 183.57 -96.6, 220.37 -116.26 M-1.59 -0.15 C34.9 -19.83, 182.68 -98.74, 219.67 -118.11" stroke="#1e1e1e" stroke-width="2" fill="none"></path></g><g transform="translate(155.03931901724337 429.58710792196007) rotate(0 109.94517434002802 -58.39089014949147)"><path d="M202.91 -99.56 C209.62 -105.06, 215.21 -110.8, 219.67 -118.11 M202.91 -99.56 C207.44 -103.9, 211.62 -109.67, 219.67 -118.11" stroke="#1e1e1e" stroke-width="2" fill="none"></path></g><g transform="translate(155.03931901724337 429.58710792196007) rotate(0 109.94517434002802 -58.39089014949147)"><path d="M194.91 -114.67 C204.31 -115.03, 212.62 -115.63, 219.67 -118.11 M194.91 -114.67 C201.51 -115.24, 207.69 -117.25, 219.67 -118.11" stroke="#1e1e1e" stroke-width="2" fill="none"></path></g></g><mask></mask><g stroke-linecap="round" transform="translate(749.4201857740472 40.9117732370469) rotate(0 71.3019355153134 52.09134665292622)"><path d="M26.05 0 C56.72 -2.14, 89.23 -0.8, 116.56 0 M26.05 0 C61 0.01, 96.95 -0.67, 116.56 0 M116.56 0 C133.26 0.25, 142.16 7.7, 142.6 26.05 M116.56 0 C133.57 -0.73, 143.03 8.77, 142.6 26.05 M142.6 26.05 C144.48 40.55, 141.98 56.77, 142.6 78.14 M142.6 26.05 C143.04 42.89, 143.14 57.78, 142.6 78.14 M142.6 78.14 C142.4 95.6, 132.08 105.97, 116.56 104.18 M142.6 78.14 C141.67 97.16, 135.63 103.46, 116.56 104.18 M116.56 104.18 C94.38 104.49, 73.52 104.93, 26.05 104.18 M116.56 104.18 C92.44 103.41, 69.61 102.87, 26.05 104.18 M26.05 104.18 C10.66 104.29, -1.98 95.72, 0 78.14 M26.05 104.18 C8.84 104.78, -0.11 95.36, 0 78.14 M0 78.14 C1.2 61.76, 1.78 41.22, 0 26.05 M0 78.14 C-1.02 61.08, -0.43 43.88, 0 26.05 M0 26.05 C-0.08 9.92, 10.1 -1.45, 26.05 0 M0 26.05 C-2.25 7.7, 10.23 1.6, 26.05 0" stroke="#1e1e1e" stroke-width="2" fill="none"></path></g><g stroke-linecap="round" transform="translate(757.6422877360899 50.946641303780495) rotate(0 63.07983368999788 42.05647827724292)"><path d="M21.03 0 C45.4 -1.42, 65.73 -1.74, 105.13 0 M21.03 0 C45.15 0.44, 70.99 1.42, 105.13 0 M105.13 0 C118.08 1.97, 126.27 5.03, 126.16 21.03 M105.13 0 C119.4 0.16, 126.76 6.9, 126.16 21.03 M126.16 21.03 C127.46 34.52, 127.59 47.46, 126.16 63.08 M126.16 21.03 C126.28 29.58, 126.73 39.36, 126.16 63.08 M126.16 63.08 C127.56 77.03, 120.39 85.53, 105.13 84.11 M126.16 63.08 C124.5 74.85, 118.16 85.66, 105.13 84.11 M105.13 84.11 C75.69 86.03, 41.2 84.51, 21.03 84.11 M105.13 84.11 C85.81 84.24, 64.97 83.78, 21.03 84.11 M21.03 84.11 C5.82 85.22, 1.54 76.12, 0 63.08 M21.03 84.11 C6.01 83.88, -1.25 79.32, 0 63.08 M0 63.08 C0.43 51.45, -0.27 39.92, 0 21.03 M0 63.08 C0.62 51.62, 0.67 39.26, 0 21.03 M0 21.03 C-0.96 6.39, 6.17 -1.08, 21.03 0 M0 21.03 C1.58 7.81, 6.48 1.35, 21.03 0" stroke="#1e1e1e" stroke-width="2" fill="none"></path></g><g stroke-linecap="round" transform="translate(749.3499521817616 145.48834777333724) rotate(0 71.82193150671623 7.279529423702911)"><path d="M3.64 0 C53.87 0.44, 103.37 0.69, 140 0 M3.64 0 C37.09 -0.48, 70.74 -0.3, 140 0 M140 0 C142.69 0.05, 143.45 2.18, 143.64 3.64 M140 0 C142.7 0.81, 143.54 0.12, 143.64 3.64 M143.64 3.64 C143.46 6.38, 143.83 8.84, 143.64 10.92 M143.64 3.64 C143.49 6.67, 143.59 9.55, 143.64 10.92 M143.64 10.92 C142.67 13.71, 141.79 14.51, 140 14.56 M143.64 10.92 C144.13 12.84, 142.83 13.95, 140 14.56 M140 14.56 C98.81 13.99, 56.56 14.11, 3.64 14.56 M140 14.56 C103.93 14.83, 67.27 14.34, 3.64 14.56 M3.64 14.56 C1.75 13.73, 0.62 13.16, 0 10.92 M3.64 14.56 C0.3 15.13, 0.8 12.78, 0 10.92 M0 10.92 C-0.23 8.89, 0.35 7.06, 0 3.64 M0 10.92 C-0.16 9.01, -0.01 7.19, 0 3.64 M0 3.64 C-0.35 0.92, 0.31 -0.62, 3.64 0 M0 3.64 C0.28 1.76, 1.5 0.84, 3.64 0" stroke="#1e1e1e" stroke-width="2" fill="none"></path></g><g stroke-linecap="round"><g transform="translate(505.29365658811474 171.7543997295533) rotate(0 114.59676917913237 -47.100269543678976)"><path d="M-0.81 0.51 C37.52 -15.2, 190.99 -79.31, 229.32 -95.28 M0.96 -0.27 C39.21 -15.77, 190.53 -78.59, 228.44 -94.31" stroke="#1e1e1e" stroke-width="2" fill="none"></path></g><g transform="translate(505.29365658811474 171.7543997295533) rotate(0 114.59676917913237 -47.100269543678976)"><path d="M210.02 -77.42 C215.48 -81.17, 217.28 -85.44, 228.44 -94.31 M210.02 -77.42 C212.9 -81.49, 216.91 -83.54, 228.44 -94.31" stroke="#1e1e1e" stroke-width="2" fill="none"></path></g><g transform="translate(505.29365658811474 171.7543997295533) rotate(0 114.59676917913237 -47.100269543678976)"><path d="M203.47 -93.21 C210.37 -93.09, 213.77 -93.54, 228.44 -94.31 M203.47 -93.21 C207.79 -93.99, 213.17 -92.78, 228.44 -94.31" stroke="#1e1e1e" stroke-width="2" fill="none"></path></g></g><mask></mask><g stroke-linecap="round"><g transform="translate(736.566704835366 105.02708464939823) rotate(0 -113.70715613553273 50.34201038196251)"><path d="M0.5 -0.58 C-37.19 16.11, -188.45 84.02, -226.44 101.04 M-0.7 1.73 C-38.44 17.97, -188.96 82.79, -226.88 99.11" stroke="#1e1e1e" stroke-width="2" fill="none"></path></g><g transform="translate(736.566704835366 105.02708464939823) rotate(0 -113.70715613553273 50.34201038196251)"><path d="M-208.68 81.97 C-214.52 88.38, -217.97 91.4, -226.88 99.11 M-208.68 81.97 C-215 89.43, -222.78 95.11, -226.88 99.11" stroke="#1e1e1e" stroke-width="2" fill="none"></path></g><g transform="translate(736.566704835366 105.02708464939823) rotate(0 -113.70715613553273 50.34201038196251)"><path d="M-201.92 97.68 C-209.74 99.79, -215.04 98.5, -226.88 99.11 M-201.92 97.68 C-210.64 99.33, -220.94 99.14, -226.88 99.11" stroke="#1e1e1e" stroke-width="2" fill="none"></path></g></g><mask></mask></svg>